<?xml version="1.0" encoding="utf-8"?>
<!-- Generator: SketchAPI 5.1.316 <https://api.sketch.io/> -->
<svg version="1.1" xmlns="http://www.w3.org/2000/svg" xmlns:xlink="http://www.w3.org/1999/xlink" xmlns:sketchjs="https://sketch.io/dtd/" style="" viewBox="0 0 110 110" sketchjs:uid="0" sketchjs:version="5.1.316">
<defs>
	<radialGradient cx="115.06" cy="341.26" r="50.508" id="c" gradientUnits="userSpaceOnUse" gradientTransform="matrix(0.99926,-0.03854,0.05657,1.4667,-19.219,-154.83)" fx="115.06" fy="341.26">
		<stop offset="0" style="stop-color:#ff0;"/>
		<stop offset="1" style="stop-color:#fea917;"/>
	</radialGradient>
	<linearGradient x1="63.077" y1="386.07" x2="183.11" y2="268.06" id="e" gradientUnits="userSpaceOnUse">
		<stop offset="0" style="stop-color:#ff0;"/>
		<stop offset="1" style="stop-color:rgba(255, 255, 0, 0);stop-opacity:0;"/>
	</linearGradient>
	<linearGradient x1="142.85" y1="208.28" x2="124.3" y2="313.87" id="f" gradientUnits="userSpaceOnUse">
		<stop offset="0" style="stop-color:#fff;"/>
		<stop offset="1" style="stop-color:rgba(255, 255, 255, 0);stop-opacity:0;"/>
	</linearGradient>
</defs>
<g sketchjs:uid="1" style="color: #000;">
	<path d="M126.25 352.5l2.406 52.281-5.91-32.28 4.156 32.812-4.187-17.781-2.625-16.219 1.719 12.344-5.563-23.719 7.594 43.031-7.594-25.844 3.969 21.312-13.781-40.562 12.281 44-10.531-26.125 5.938 20.625-14.72-31.812 13.907 40.594-9.938-16.938-3.406-6.563 1.344 3.032-11.906-20.281 21.28 46.78-.968-1.343-18-27.72 6.782 12.1-7.5-10.44 10.19 17.84-20.69-28.65 22.31 35.59-13.56-16.97 13.75 20.22-32.406-36.75 26.812 34.75-15.844-16.28 17.656 21.188-29.938-27.812 32.5 35.25-12.5-9.375-28.938-22.094 37.375 33.375-31.031-18.906 4.187 3.156-1.53-.937 10.374 7.687 4.813 3.656-31.938-17.344 31.062 21.25-15.5-8.5 18.75 10.72 2.156 1.468-44.625-18.875L78.9 426.38l-17-7.281 20.594 9.25 7.625 4.187-20.906-6.625-21.406-7.968 15.719 6.156-5.875-1.875 13.25 5.75-9.813-2.875 27.377 12.41-2.094-.41-45.219-11.97 36.062 10.219-21.53-4.125 16.374 5.594-30.812-4.31 15.688 4.468-.625-.093.72.125 19.75 5.656-13.595-.563-7.156-.843 5 .75-25.25-1.063 43.188 7.906-3.125.157-23.781-.47 16.469.845-15.406.78 19.219 1.72-34.312 1.03 46.938.095.937.093-27.438 3.688 32.625-1.531-30.347 3.91-4.344.53-21.906 2.81 50.47-4.813-28.813 6.75 22.72-3.281-15.657 4.531-9.5 2.125 6.313-1.219-16.312 4.72 45.28-8.81-30.375 9.69 22.187-6.41-38.531 15.28 46.219-13.751-30.625 13.16 33.094-13.16-29.5 15 4.344-1.75-19.188 9.406 31.188-14.219 13.156-5.312-24 14.938 30.062-15.938-49.812 30.719 48.312-28-27.625 21.156 19.625-13-17.47 14.812-3.124 2.344 2.125-1.5-9.938 8.406 41.25-30.344-26.692 25.97 6.625-5.313-18.656 19.188 32.031-28.719 7.656-6.812-24.969 29.5 13.625-13.28-4.25 5.531-6.03 7.469 1.843-2-11.688 15.312 31.25-33.781-1.031 1.656-13.75 19.531 6.656-8.16-18.5 29.844 29.625-39.031-13.75 24.25 12.469-18.625-16.188 32.094 22.406-37.344 3-4.844-13.594 31.72 5.219-10.095-10.938 28.25 22.375-47.156-11.156 35.062 8.468-21.125-1.125 4.281-4.593 16.094 1.218-3.312-4.843 18.28 12.656-36.874-5.5 22.938 6.937-18.594-6.344 38.938 9.438-39.625-3.406 24.406 4.406-16.562-2.813 30.938 3.844-18.062-.219 3.094.907-6.375 4.093-19.25.313 45.688 5.437-48.25 3.063 30.406.5-25.156 4.187 37.25-3.968-46.062 5.375 28.062-1.875-27.406 10.219 48.219-8.782-47.5 8.407 28.656-2.688-16.125 9.781 28.188-8.687-39.562 6.687 14.53 3.47 9-2.032-5.906 10.562 22.938-14.625-45.25 2.219 3.844 12.312 24.562-7.125-15.594 7.656 13.22-6.188-14.439 15.375 27.25-21.125-40.844 15.594 24.562-21.094-37.594 36.875 52.656-26.125-40.344 18.72 23.97-17.25-24.75 28.72 33.26-19.19-24.79 11.31 13.35-22.81-28.97 22.374 22-5.875-7.532 24.062 22.906-35.75-37.938-1.687-2.187 26.938 21.844-9.781-10.344 13.03 10.312-7.03-6.188 16.311 11.906-27.43-26.28 36.22 21.438-34.75-27.344 18.437 8.719 7.22 3.875-4.313-2.5 2.844 1.344-20.156-13.031 35.438 16.844-41-21.156 27.969 10.719-38.188-16.594-3.844-2.5 25.438 9.187 17.25 6.313-2.094-.844 22.062 7.969-44.781-17.844 30.188 8.312-32.188-10.406 46.344 10.312-15.906-4.281-24.938-7.344 21.781 3.563-25-6.407 50.281 6.188-49.656-8.344 29.031 1.875-19.938-3.094 33.188.47-14.03-1.44 4.687.124-11.469-.844-24.562-2.562 19.062-1.563 11.5-.5-4.062-.125 23.281-1.937-53.188-.344 37.125-5.219-13.781.907 12.312-2.188-15.594 1.344 29.625-5.656-42.594 4.937 27.438-6.406-19.344 2.562 36.938-10.844-43.812 9.438 27.906-9.438-22.406 5.25 33.906-13.375-26.281 7.563 8.812-3.375-24.969 7.531 42.97-21.969-26.563 10.5 8.844-4.406-28.844 11.844.344-.219 38.312-21.469-17.188 8.094 5.5-3.5-25.125 12.719-9.25 4.344 29.156-19.781-6.375 3.594 4.844-3.344-2 1.187 19.25-13.406-45.688 27.188 28.312-23.5-6.281 4.375 4.718-3.968-22.53 16.406 31.5-28.906-31.22 24.156 13.5-13.406-22.25 20.219 22.22-24.531-1.407 1.312 15.656-17.438-30 28.281 12.68-15.32-21.12 23.28 20.62-27.74-7.5 8.53 12.59-16.91-29.97 36.59-1.406 1.594 18-30.594-6.96 9.91 4.94-8.06-4.78 7.06 15.09-24.94-29 43.375 15.844-34.125-6.25 11.03 4.313-8.905-11.91 21.9 15.47-38.09-18.75 37.188 7.687-21.594-8.594 19.438 12.531-42.312-15.719 40.562 5.813-23.22-7.72 23.282L150.27 373l-2.937 10.312 4.344-21.844-7.813 28.125L146.457 375l-3.75 18.844-4.656 16.78 2.156-22.061 1.25-11.875-.125.75 2.125-21.562-5.281 30.062 1.219-15.438-2 19.969-3.282 18.594v-2l1.47-50.406-1.29 25.34.062-9.25-2.063 25.188-1.906-22.562.969 34.062-.563 7.03-.187-1-2.62-41.47.44 10.91-2.19-32.41z" transform="matrix(0.5414,0,0,0.5414,-15.64,-189.91)" sketchjs:uid="2" style="fill: #fd5; opacity: 0.8; filter: a;"/>
	<path d="M184.86 316.97c0 27.895-22.613 50.508-50.508 50.508s-50.508-22.613-50.508-50.508 22.613-50.508 50.508-50.508 50.508 22.613 50.508 50.508z" transform="matrix(0.7053,0,0,0.7053,-38.92,-167.1)" sketchjs:uid="3" style="fill: #fd5; opacity: 0.94; filter: b;"/>
	<path d="M184.86 316.97c0 27.895-22.613 50.508-50.508 50.508s-50.508-22.613-50.508-50.508 22.613-50.508 50.508-50.508 50.508 22.613 50.508 50.508z" transform="matrix(0.61053,0,0,0.61053,-26.355,-138.077)" sketchjs:uid="4" style="fill: url(#c);"/>
	<path d="M184.86 316.97c0 27.895-22.613 50.508-50.508 50.508s-50.508-22.613-50.508-50.508 22.613-50.508 50.508-50.508 50.508 22.613 50.508 50.508z" transform="matrix(0.56169,0,0,0.56169,-19.357,-122.594)" sketchjs:uid="5" style="fill: url(#e); filter: d;"/>
	<path d="M184.86 316.97c0 27.895-22.613 50.508-50.508 50.508s-50.508-22.613-50.508-50.508 22.613-50.508 50.508-50.508 50.508 22.613 50.508 50.508z" transform="matrix(0.56169,0,0,0.56169,-19.357,-122.594)" sketchjs:uid="6" style="fill: url(#f);"/>
</g>
</svg>